ffmpeg started on 2016-11-27 at 01:58:35
Report written to "Output/NVENCh264/results/ffmpeg/crowd_run_2160p50llhq1500k.log"
Command line:
Tools/ffmpeg/ffmpeg -benchmark -y -i Input/y4m/crowd_run_2160p50.y4m -c:v h264_nvenc -preset llhq -b:v 1500k -an Output/NVENCh264/encoded/crowd_run_2160p50llhq1500k.mkv
ffmpeg version N-82227-gdb23fde Copyright (c) 2000-2016 the FFmpeg developers
  built with gcc 5.4.0 (Ubuntu 5.4.0-6ubuntu1~16.04.2) 20160609
  configuration: --prefix=/home/jaroslav/ffmpeg_build --pkg-config-flags=--static --extra-cflags=-I/home/jaroslav/ffmpeg_build/include --extra-ldflags=-L/home/jaroslav/ffmpeg_build/lib --bindir=/home/jaroslav/bin --enable-gpl --enable-libass --enable-libfdk-aac --enable-libfreetype --enable-libmp3lame --enable-libopus --enable-libtheora --enable-libvorbis --enable-libvpx --enable-libx264 --enable-libx265 --enable-nvenc --enable-libmfx --enable-libxvid --enable-libgsm --enable-libopencore-amrnb --enable-version3 --enable-nonfree
  libavutil      55. 35.100 / 55. 35.100
  libavcodec     57. 66.101 / 57. 66.101
  libavformat    57. 57.100 / 57. 57.100
  libavdevice    57.  2.100 / 57.  2.100
  libavfilter     6. 66.100 /  6. 66.100
  libswscale      4.  3.100 /  4.  3.100
  libswresample   2.  4.100 /  2.  4.100
  libpostproc    54.  2.100 / 54.  2.100
Input #0, yuv4mpegpipe, from 'Input/y4m/crowd_run_2160p50.y4m':
  Duration: 00:00:10.00, start: 0.000000, bitrate: 4976642 kb/s
    Stream #0:0: Video: rawvideo (I420 / 0x30323449), yuv420p(progressive), 3840x2160, SAR 1:1 DAR 16:9, 50 fps, 50 tbr, 50 tbn, 50 tbc
[h264_nvenc @ 0x39c41c0] The variable bitrate rate-control requires the 'qmin' and/or 'qmax' option set.
Output #0, matroska, to 'Output/NVENCh264/encoded/crowd_run_2160p50llhq1500k.mkv':
  Metadata:
    encoder         : Lavf57.57.100
    Stream #0:0: Video: h264 (h264_nvenc) (Main) (H264 / 0x34363248), yuv420p, 3840x2160 [SAR 1:1 DAR 16:9], q=-1--1, 1500 kb/s, 50 fps, 1k tbn, 50 tbc
    Metadata:
      encoder         : Lavc57.66.101 h264_nvenc
    Side data:
      cpb: bitrate max/min/avg: 0/0/1500000 buffer size: 3000000 vbv_delay: -1
Stream mapping:
  Stream #0:0 -> #0:0 (rawvideo (native) -> h264 (h264_nvenc))
Press [q] to stop, [?] for help
frame=   12 fps=0.0 q=0.0 size=       0kB time=00:00:00.00 bitrate=N/A speed=   0x    frame=   22 fps= 20 q=0.0 size=       0kB time=00:00:00.00 bitrate=N/A speed=   0x    frame=   31 fps= 19 q=49.0 size=       1kB time=00:00:00.00 bitrate=5960.0kbits/s speed=0.000618x    frame=   47 fps= 22 q=49.0 size=       1kB time=00:00:00.32 bitrate=  18.6kbits/s speed=0.151x    frame=   65 fps= 24 q=49.0 size=       1kB time=00:00:00.68 bitrate=   8.8kbits/s speed=0.257x    frame=   83 fps= 26 q=49.0 size=       1kB time=00:00:01.04 bitrate=   5.7kbits/s speed=0.328x    frame=  100 fps= 13 q=49.0 size=       1kB time=00:00:01.38 bitrate=   4.3kbits/s speed=0.186x    frame=  101 fps=9.0 q=49.0 size=       1kB time=00:00:01.40 bitrate=   4.3kbits/s speed=0.124x    frame=  102 fps=8.0 q=49.0 size=       1kB time=00:00:01.42 bitrate=   4.2kbits/s speed=0.112x    frame=  119 fps=9.0 q=49.0 size=       1kB time=00:00:01.76 bitrate=   3.4kbits/s speed=0.133x    frame=  137 fps= 10 q=49.0 size=       1kB time=00:00:02.12 bitrate=   2.8kbits/s speed=0.155x    frame=  154 fps= 11 q=49.0 size=       1kB time=00:00:02.46 bitrate=   2.4kbits/s speed=0.173x    frame=  171 fps= 12 q=49.0 size=       1kB time=00:00:02.80 bitrate=   2.1kbits/s speed=0.19x    frame=  188 fps= 12 q=49.0 size=       1kB time=00:00:03.14 bitrate=   1.9kbits/s speed=0.206x    frame=  205 fps= 13 q=49.0 size=       1kB time=00:00:03.48 bitrate=   1.7kbits/s speed=0.221x    frame=  222 fps= 14 q=49.0 size=       1kB time=00:00:03.82 bitrate=   1.6kbits/s speed=0.235x    frame=  240 fps= 14 q=49.0 size=       1kB time=00:00:04.18 bitrate=   1.4kbits/s speed=0.249x    frame=  258 fps= 15 q=49.0 size=       1kB time=00:00:04.54 bitrate=   1.3kbits/s speed=0.262x    frame=  276 fps= 15 q=49.0 size=       1kB time=00:00:04.90 bitrate=   1.2kbits/s speed=0.275x    frame=  293 fps= 16 q=49.0 size=    2992kB time=00:00:05.24 bitrate=4677.1kbits/s speed=0.286x    frame=  300 fps= 16 q=49.0 size=    2992kB time=00:00:05.38 bitrate=4555.5kbits/s speed=0.285x    frame=  318 fps= 16 q=49.0 size=    2992kB time=00:00:05.74 bitrate=4269.8kbits/s speed=0.296x    frame=  336 fps= 17 q=49.0 size=    2992kB time=00:00:06.10 bitrate=4017.9kbits/s speed=0.306x    frame=  354 fps= 17 q=49.0 size=    2992kB time=00:00:06.46 bitrate=3794.0kbits/s speed=0.316x    frame=  372 fps= 18 q=49.0 size=    2992kB time=00:00:06.82 bitrate=3593.7kbits/s speed=0.325x    frame=  390 fps= 18 q=49.0 size=    2992kB time=00:00:07.18 bitrate=3413.6kbits/s speed=0.334x    frame=  408 fps= 18 q=49.0 size=    2992kB time=00:00:07.54 bitrate=3250.6kbits/s speed=0.338x    frame=  426 fps= 19 q=49.0 size=    2992kB time=00:00:07.90 bitrate=3102.5kbits/s speed=0.346x    frame=  444 fps= 19 q=49.0 size=    2992kB time=00:00:08.26 bitrate=2967.3kbits/s speed=0.354x    frame=  462 fps= 19 q=49.0 size=    2992kB time=00:00:08.62 bitrate=2843.4kbits/s speed=0.362x    frame=  480 fps= 20 q=49.0 size=    2992kB time=00:00:08.98 bitrate=2729.4kbits/s speed=0.369x    frame=  498 fps= 20 q=49.0 size=    2992kB time=00:00:09.34 bitrate=2624.2kbits/s speed=0.376x    frame=  500 fps= 20 q=49.0 Lsize=    6202kB time=00:00:09.98 bitrate=5090.0kbits/s speed= 0.4x    
video:6197kB audio:0kB subtitle:0kB other streams:0kB global headers:0kB muxing overhead: 0.068483%
bench: utime=1.168s
bench: maxrss=1396748kB
